# xmcd
# 
# Track frame offsets:
#     150
#     38382
#     78195
#     119607
# 
# Disc length: 2363
# 
# Revision: 28
# Processed by: cddbd v1.5.2PL0 Copyright (c) Steve Scherf et al.
# Submitted via: fre:ac v1.0.27
# 
DISCID=23093904
DTITLE=Pink Floyd - Ummagumma - Live Album
DYEAR=1969
DGENRE=Psychedelic Rock
TTITLE0=Astronomy Domine
TTITLE1=Careful With That Axe, Eugene
TTITLE2=Set The Controls For The Heart Of The Sun
TTITLE3=A Saucerful Of Secrets
EXTD=Pink Floyd
EXTT0=Syd Barrett
EXTT1=Waters, Wright, Mason, Gilmour
EXTT2=Roger Waters
EXTT3=Waters, Wright, Mason, Gilmour
PLAYORDER=
